<svg xmlns="http://www.w3.org/2000/svg" viewBox="0 0 2621.83 2393.19"><defs><style>.cls-1,.cls-10,.cls-9{stroke:#000;}.cls-1,.cls-2,.cls-3,.cls-5{stroke-linecap:round;stroke-linejoin:round;}.cls-1{stroke-width:200px;}.cls-10,.cls-2,.cls-5,.cls-6,.cls-7,.cls-8{fill:#fff;}.cls-2,.cls-8{stroke:#fff;stroke-width:100px;}.cls-3,.cls-4,.cls-5,.cls-6,.cls-7{stroke:#1d1d1b;}.cls-10,.cls-3,.cls-4,.cls-5,.cls-6,.cls-9{stroke-width:50px;}.cls-10,.cls-4,.cls-6,.cls-7,.cls-8,.cls-9{stroke-miterlimit:10;}.cls-7{stroke-width:190px;}</style></defs><title>B&amp;amp;W Logo Diagonal</title><g id="Diagonal_Capa_3" data-name="Diagonal Capa 3"><path class="cls-1" d="M2262.23,1539.8c-21.4-68.44-68.74-117.44-140.92-147l170.45,0c140,0,205.38-97.4,225.57-182.79,17.83-75.44-19.9-147.5-91.58-170-4.3-72.07-59.68-131.18-144.55-131.18l-520.24.06q-225.85,0-359.43,110.13l-2.44-10.26c-3.49-14.7-13.62-23.52-26.19-26.51l-9-37.91c-5.76-24.27-29.6-32.57-52.7-24.9-5.53-6.1-3-16.39,6.08-22.29,240.2-155.58,291-449,103.09-566.17-34-98.53-129.69-171.59-294.1-174.29H516.4c-79.62,0-157.64,57-174.27,127.34L104.86,1287.44c-15.59,65.9,28.26,120.11,99.35,126.67C189.36,1483.29,240.14,1539,318.81,1539H957.64c100.37-6.77,188.58-43.45,259.48-96.54q-1.36,154.45,108.74,222.64,30.86,100.11,134.5,143.85l-170.73,0c-112.87,0-190.84,76.46-216.34,184.28-18.38,77.72,16.36,151.51,91,170.88,2.76,71,52,128.86,135.91,128.86l517.24.08c287.51,0,472.92-136.22,537.35-408.68C2394.22,1717.47,2361.84,1602.64,2262.23,1539.8Z"/></g><g id="Diagonal_Capa_2" data-name="Diagonal Capa 2"><path class="cls-2" d="M2262.23,1539.8c-21.4-68.44-68.74-117.44-140.92-147l170.45,0c140,0,205.38-97.4,225.57-182.79,17.83-75.44-19.9-147.5-91.58-170-4.3-72.07-59.68-131.18-144.55-131.18l-520.24.06q-225.85,0-359.43,110.13l10.62-22.69c-3.49-14.7-86-79.63-101-76.89-5.53-6.1-3-16.39,6.08-22.29,240.2-155.58,291-449,103.09-566.17-34-98.53-129.69-171.59-294.1-174.29H516.4c-79.62,0-157.64,57-174.27,127.34L104.86,1287.44c-15.59,65.9,28.26,120.11,99.35,126.67C189.36,1483.29,240.14,1539,318.81,1539H957.64c100.37-6.77,188.58-43.45,259.48-96.54q-1.36,154.45,108.74,222.64,30.86,100.11,134.5,143.85l-170.73,0c-112.87,0-190.84,76.46-216.34,184.28-18.38,77.72,16.36,151.51,91,170.88,2.76,71,52,128.86,135.91,128.86l517.24.08c287.51,0,472.92-136.22,537.35-408.68C2394.22,1717.47,2361.84,1602.64,2262.23,1539.8Z"/></g><g id="Diagonal_Final" data-name="Diagonal Final"><path class="cls-3" d="M1313,921c-7.76-5.71-5.67-17.47,4.3-23.93,302.25-195.77,304.56-609.8-91.1-616.28H616.31c-79.62,0-157.64,57-174.27,127.34L204.77,1411.62C188.14,1482,239.2,1539,318.81,1539H957.64C1327.64,1514,1532.57,1082.56,1313,921Z"/><path class="cls-4" d="M1665.09,1842.89q-431.27,0-334.63-408.68,94.93-401.49,526.2-401.48l520.24-.06c102.47,0,162,86.18,140.43,177.28-20.19,85.39-85.58,182.79-225.57,182.79l-520.24.06q-86.25,0-96,41.41-11.49,48.6,74.76,48.61H2009c287.52,0,409.07,133.83,345.79,401.48C2290.35,2156.76,2104.94,2293,1817.43,2293l-517.24-.08c-101.91,0-152.62-85.23-131.2-175.8,25.49-107.82,103.46-184.27,216.34-184.27l517.24.08q86.25,0,97.75-48.61,9.78-41.41-76.47-41.41Z"/><path class="cls-5" d="M1213.06,796.79c-7.76-5.71-5.67-17.47,4.3-23.93,302.25-195.76,304.56-609.79-91.1-616.28H516.4c-79.62,0-157.64,57-174.27,127.34L104.86,1287.44c-16.63,70.33,34.43,127.34,114,127.34H857.73C1227.73,1389.84,1432.66,958.38,1213.06,796.79Zm-301,257.44c-12,50.64-69.28,91.69-128,91.69H547.42c-26.84,0-44.16-18.77-38.69-41.92L533,1001.3c5.07-21.41,29.3-38.77,54.12-38.77H827.46c58.72,0,96.61,41.05,84.63,91.7Zm128.08-541.67c-12,50.65-69.28,91.7-128,91.7H675.5c-26.85,0-44.17-18.77-38.69-41.92l24.28-102.7c5.06-21.41,29.29-38.77,54.12-38.77H955.54c58.71,0,96.6,41.05,84.63,91.69Z"/><path class="cls-6" d="M1570.79,1718.48q-431.26,0-334.64-408.68,94.93-401.49,526.2-401.48l520.24-.06c102.48,0,162,86.18,140.43,177.28-20.19,85.39-85.57,182.79-225.57,182.79l-520.24.06q-86.25,0-96,41.41-11.51,48.6,74.76,48.61h258.76c287.51,0,409.07,133.83,345.78,401.48-64.42,272.46-249.83,408.68-537.34,408.68l-517.24-.08c-101.92,0-152.62-85.23-131.21-175.8,25.5-107.82,103.47-184.27,216.35-184.27l517.23.08q86.27,0,97.75-48.61,9.79-41.42-76.46-41.41Z"/></g><g id="Estrella_Diagonal_Capa_3" data-name="Estrella Diagonal Capa 3"><path class="cls-7" d="M1534.55,1214.43l-16.8-2.64c5.07-22.85-5.15-44.84-29.35-48.64l-87.84-13.78c-15-2.35-26-12.5-29.47-27.15l-20.42-86c-8.76-36.89-59.28-36.89-85.49,0l-61.07,86c-10.4,14.65-26.23,24.8-42.31,27.15l-94.36,13.78c-40.49,5.92-67.93,55.95-46.43,84.67l50.1,66.9c8.54,11.41,9.78,27.84,3.32,43.94l-37.9,94.48c-14.51,36.15,10.6,64.65,44.21,56.83-11.21,37.74,21.06,65,58.73,46.77l92-44.61c15.68-7.6,32.27-7.6,44.36,0l70.94,44.61c30.44,19.14,78.63-11.78,81.53-52.33l6.78-94.47c1.16-16.11,10.17-32.54,24.1-43.94l81.74-66.91C1576,1270.38,1572.25,1220.34,1534.55,1214.43Z"/></g><g id="Estrella_Diagonal_Capa_2" data-name="Estrella Diagonal Capa 2"><path class="cls-8" d="M1534.55,1214.43l-16.8-2.64c5.07-22.85-5.15-44.84-29.35-48.64l-87.84-13.78c-15-2.35-26-12.5-29.47-27.15l-20.42-86c-8.76-36.89-59.28-36.89-85.49,0l-61.07,86c-10.4,14.65-26.23,24.8-42.31,27.15l-94.36,13.78c-40.49,5.92-67.93,55.95-46.43,84.67l50.1,66.9c8.54,11.41,9.78,27.84,3.32,43.94l-37.9,94.48c-14.51,36.15,10.6,64.65,44.21,56.83-11.21,37.74,21.06,65,58.73,46.77l92-44.61c15.68-7.6,32.27-7.6,44.36,0l70.94,44.61c30.44,19.14,78.63-11.78,85.56-52.33l6.77-94.47c-2.86-16.11,6.15-32.54,20.08-43.94l81.74-66.91C1576,1270.38,1572.25,1220.34,1534.55,1214.43Z"/></g><g id="Estrella_Diagonal_1" data-name="Estrella Diagonal 1"><path class="cls-9" d="M1321.29,1071c27.15-22.29,34.85,10.51,43,44.69l21.84,64.51c3.48,14.65,43.45,14.68,58.42,17l83.37,13.08c42.76,8.94,50.19,67.87,14.74,92.72L1457,1362.58c-13.93,11.4-22.94,27.83-24.1,43.93l-3.79,95.77c-1.86,42.93-34.8,77.49-84.52,51l-70.93-44.6c-12.09-7.6-28.68-7.6-44.37,0l-88,48.35c-30.18,16.87-77.12-15.52-60.86-56.07l37.9-94.48c6.46-16.1,5.22-32.53-3.32-43.93l-15.73-81.43c-21.5-28.71-28.43-64.23,12.07-70.14l94.36-13.79c16.08-2.35,31.9-12.5,42.31-27.15l61.06-86A67.17,67.17,0,0,1,1321.29,1071Z"/><path class="cls-10" d="M1280.34,1026.15c27.15-22.29,68.39-7.73,76.51,26.45l17.25,72.63c3.48,14.65,14.5,24.81,29.47,27.16l83.37,13.08c42.76,8.93,62.25,76.21,17.71,101.14-1.72,1-82.75,59.26-82.75,59.26-13.93,11.41-22.94,27.84-24.1,43.94l.92,90.46c-1.85,42.92-45.34,74.67-95.06,48.21l-70.93-44.61c-12.09-7.6-28.68-7.6-44.37,0l-88,48.35c-30.18,16.87-80.14-18.54-63.87-59.08l40.91-91.46c6.46-16.11,5.22-32.54-3.32-43.94l-50.1-66.91c-21.5-28.71,5.94-78.75,46.44-84.66l94.36-13.78c16.08-2.35,31.9-12.51,42.31-27.16l61.06-86A67.53,67.53,0,0,1,1280.34,1026.15Z"/></g></svg>